# xmcd
#
# Track frame offsets: 
#        150
#        15677
#        28778
#        43604
#        59264
#        78650
#        95897
#        115561
#        124456
#        152344
#
# Disc length: 2427 seconds
#
# Revision: 0
# Processed by: cddbd v1.5.2PL0 Copyright (c) Steve Scherf et al.
# Submitted via: ExactAudioCopy v1.2
#
DISCID=7d09790a
DTITLE=Steve Krase Band - Just Waitin'
DYEAR=2018
DGENRE=Blues
TTITLE0=Settin' The Woods On Fire
TTITLE1=I Don't Mind
TTITLE2=Just Waitin' On My Brand New Baby
TTITLE3=Irene Irene
TTITLE4=The Ballad Of Jed Clampett
TTITLE5=All In The Mood
TTITLE6=Dirty Dirty
TTITLE7=Blame It All On Love
TTITLE8=Nobody Loves Me
TTITLE9=My Baby Walked Off
EXTD=
EXTT0=
EXTT1=
EXTT2=
EXTT3=
EXTT4=
EXTT5=
EXTT6=
EXTT7=
EXTT8=
EXTT9=
PLAYORDER=
